<svg xmlns="http://www.w3.org/2000/svg" xmlns:xlink="http://www.w3.org/1999/xlink" width="500"
    zoomAndPan="magnify" viewBox="0 0 375 104.999996" height="140"
    preserveAspectRatio="xMidYMid meet" version="1.0">
    <defs>
        <g />
        <clipPath id="fb411d413b">
            <path
                d="M 7.039062 6.617188 L 187.261719 6.617188 L 187.261719 97.683594 L 7.039062 97.683594 Z M 7.039062 6.617188 "
                clip-rule="nonzero" />
        </clipPath>
        <clipPath id="3a14b6b6e7">
            <path
                d="M 7.039062 6.617188 L 187.039062 6.617188 L 187.039062 97.363281 L 7.039062 97.363281 Z M 7.039062 6.617188 "
                clip-rule="nonzero" />
        </clipPath>
    </defs>
    <rect x="-37.5" width="450" fill="#ffffff" y="-10.5" height="125.999995" fill-opacity="1" />
    <rect x="-37.5" width="450" fill="#ffffff" y="-10.5" height="125.999995" fill-opacity="1" />
    <rect x="-37.5" width="450" fill="#ffffff" y="-10.5" height="125.999995" fill-opacity="1" />
    <path stroke-linecap="butt" transform="matrix(0.75, 0, 0, 0.75, 0.00000945345, -0.000001)"
        fill="none" stroke-linejoin="miter"
        d="M -0.0000126046 0.00000133333 L 500.000059 0.00000133333 L 500.000059 140.000021 L -0.0000126046 140.000021 L -0.0000126046 0.00000133333 "
        stroke="#000000" stroke-width="24" stroke-opacity="1" stroke-miterlimit="4" />
    <g clip-path="url(#fb411d413b)">
        <path fill="#000000"
            d="M 7.039062 6.617188 L 187.417969 6.617188 L 187.417969 97.917969 L 7.039062 97.917969 Z M 7.039062 6.617188 "
            fill-opacity="1" fill-rule="nonzero" />
    </g>
    <g clip-path="url(#3a14b6b6e7)">
        <path stroke-linecap="butt" transform="matrix(0.749122, 0, 0, 0.747394, 7.040996, 6.616979)"
            fill="none" stroke-linejoin="miter"
            d="M -0.00258041 0.000278712 L 240.278672 0.000278712 L 240.278672 121.416934 L -0.00258041 121.416934 L -0.00258041 0.000278712 "
            stroke="#000000" stroke-width="4" stroke-opacity="1" stroke-miterlimit="4" />
    </g>
    <g fill="#ffffff" fill-opacity="0.4">
        <g transform="translate(39.539555, 71.888365)">
            <g>
                <path
                    d="M 26.011719 -12.980469 L 26.011719 -20.265625 L 9.5625 -20.265625 L 9.5625 -25.464844 L 26.011719 -25.464844 L 26.011719 -33.046875 L 1.289062 -33.046875 L 1.289062 0 L 9.5625 0 L 9.5625 -12.980469 Z M 26.011719 -12.980469 " />
            </g>
        </g>
    </g>
    <g fill="#ffffff" fill-opacity="0.4">
        <g transform="translate(70.595524, 71.888365)">
            <g>
                <path
                    d="M 26.109375 0 L 26.109375 -33.046875 L 1.289062 -33.046875 L 1.289062 0 L 9.5625 0 L 9.5625 -9.214844 L 17.835938 -9.214844 L 17.835938 0 Z M 17.835938 -16.746094 L 9.5625 -16.746094 L 9.5625 -25.464844 L 17.835938 -25.464844 Z M 17.835938 -16.746094 " />
            </g>
        </g>
    </g>
    <g fill="#ffffff" fill-opacity="0.4">
        <g transform="translate(101.75055, 71.888365)">
            <g>
                <path
                    d="M 26.109375 0 L 26.109375 -20.265625 L 9.5625 -20.265625 L 9.5625 -25.464844 L 26.109375 -25.464844 L 26.109375 -33.046875 L 1.289062 -33.046875 L 1.289062 -12.980469 L 17.835938 -12.980469 L 17.835938 -7.53125 L 1.289062 -7.53125 L 1.289062 0 Z M 26.109375 0 " />
            </g>
        </g>
    </g>
    <g fill="#ffffff" fill-opacity="0.4">
        <g transform="translate(132.856038, 71.888365)">
            <g>
                <path
                    d="M 25.566406 -25.464844 L 25.566406 -33.046875 L 0.742188 -33.046875 L 0.742188 -25.464844 L 9.066406 -25.464844 L 9.066406 0 L 17.339844 0 L 17.339844 -25.464844 Z M 25.566406 -25.464844 " />
            </g>
        </g>
    </g>
    <g fill="#ffffff" fill-opacity="1">
        <g transform="translate(37.349792, 69.698603)">
            <g>
                <path
                    d="M 26.011719 -12.980469 L 26.011719 -20.265625 L 9.5625 -20.265625 L 9.5625 -25.464844 L 26.011719 -25.464844 L 26.011719 -33.046875 L 1.289062 -33.046875 L 1.289062 0 L 9.5625 0 L 9.5625 -12.980469 Z M 26.011719 -12.980469 " />
            </g>
        </g>
    </g>
    <g fill="#ffffff" fill-opacity="1">
        <g transform="translate(68.405761, 69.698603)">
            <g>
                <path
                    d="M 26.109375 0 L 26.109375 -33.046875 L 1.289062 -33.046875 L 1.289062 0 L 9.5625 0 L 9.5625 -9.214844 L 17.835938 -9.214844 L 17.835938 0 Z M 17.835938 -16.746094 L 9.5625 -16.746094 L 9.5625 -25.464844 L 17.835938 -25.464844 Z M 17.835938 -16.746094 " />
            </g>
        </g>
    </g>
    <g fill="#ffffff" fill-opacity="1">
        <g transform="translate(99.560787, 69.698603)">
            <g>
                <path
                    d="M 26.109375 0 L 26.109375 -20.265625 L 9.5625 -20.265625 L 9.5625 -25.464844 L 26.109375 -25.464844 L 26.109375 -33.046875 L 1.289062 -33.046875 L 1.289062 -12.980469 L 17.835938 -12.980469 L 17.835938 -7.53125 L 1.289062 -7.53125 L 1.289062 0 Z M 26.109375 0 " />
            </g>
        </g>
    </g>
    <g fill="#ffffff" fill-opacity="1">
        <g transform="translate(130.666275, 69.698603)">
            <g>
                <path
                    d="M 25.566406 -25.464844 L 25.566406 -33.046875 L 0.742188 -33.046875 L 0.742188 -25.464844 L 9.066406 -25.464844 L 9.066406 0 L 17.339844 0 L 17.339844 -25.464844 Z M 25.566406 -25.464844 " />
            </g>
        </g>
    </g>
    <path stroke-linecap="butt" transform="matrix(0.75, 0, 0, 0.75, 136.013463, 17.670562)"
        fill="none" stroke-linejoin="miter"
        d="M 106.659141 74.001757 L 121.159142 74.001757 L 121.159142 59.059048 L 137.971643 59.059048 L 137.971643 46.491338 L 121.159142 46.491338 L 121.159142 36.652796 L 139.831018 36.652796 L 139.831018 23.73092 L 106.659141 23.73092 Z M 147.877894 74.001757 L 182.92998 74.001757 L 182.92998 60.569464 L 162.377895 60.569464 L 162.377895 23.73092 L 147.877894 23.73092 Z M 190.028939 74.001757 L 204.534148 74.001757 L 204.534148 23.73092 L 190.028939 23.73092 Z M 211.362274 74.001757 L 228.247692 74.001757 L 237.502901 59.131964 L 241.674776 65.809048 L 246.690402 74.001757 L 263.648736 74.001757 L 246.987277 48.225713 L 262.716445 23.73092 L 246.549777 23.73092 L 242.169568 30.689254 L 237.502901 38.230921 L 232.768526 30.689254 L 228.456025 23.73092 L 212.221649 23.73092 L 228.018525 48.366338 Z M 211.362274 74.001757 "
        stroke="#a6a6a6" stroke-width="6.913426" stroke-opacity="1" stroke-miterlimit="4" />
    <g fill="#000000" fill-opacity="1">
        <g transform="translate(212.02127, 73.170557)">
            <g>
                <path
                    d="M 3.984375 0 L 14.867188 0 L 14.867188 -11.203125 L 27.472656 -11.203125 L 27.472656 -20.628906 L 14.867188 -20.628906 L 14.867188 -28.011719 L 28.871094 -28.011719 L 28.871094 -37.707031 L 3.984375 -37.707031 Z M 3.984375 0 " />
            </g>
        </g>
    </g>
    <g fill="#000000" fill-opacity="1">
        <g transform="translate(242.936497, 73.170557)">
            <g>
                <path
                    d="M 3.984375 0 L 30.273438 0 L 30.273438 -10.074219 L 14.867188 -10.074219 L 14.867188 -37.707031 L 3.984375 -37.707031 Z M 3.984375 0 " />
            </g>
        </g>
    </g>
    <g fill="#000000" fill-opacity="1">
        <g transform="translate(274.551897, 73.170557)">
            <g>
                <path
                    d="M 3.984375 0 L 14.867188 0 L 14.867188 -37.707031 L 3.984375 -37.707031 Z M 3.984375 0 " />
            </g>
        </g>
    </g>
    <g fill="#000000" fill-opacity="1">
        <g transform="translate(293.402649, 73.170557)">
            <g>
                <path
                    d="M 1.132812 0 L 13.789062 0 L 20.738281 -11.148438 L 23.863281 -6.140625 L 27.632812 0 L 40.34375 0 L 27.847656 -19.335938 L 39.644531 -37.707031 L 27.523438 -37.707031 L 24.238281 -32.480469 L 20.738281 -26.824219 L 17.183594 -32.480469 L 13.949219 -37.707031 L 1.777344 -37.707031 L 13.628906 -19.230469 Z M 1.132812 0 " />
            </g>
        </g>
    </g>
</svg>